<?xml version="1.0" encoding="utf-8"?>
<!-- Generator: Adobe Illustrator 27.0.0, SVG Export Plug-In . SVG Version: 6.00 Build 0)  -->
<svg version="1.1" id="图层_1" xmlns="http://www.w3.org/2000/svg" xmlns:xlink="http://www.w3.org/1999/xlink" x="0px" y="0px"
	 viewBox="0 0 323 322.5" enable-background="new 0 0 323 322.5" xml:space="preserve">
<g>
	<circle fill="#FFFFFF" cx="162" cy="159.5" r="147"/>
	<path fill="#29ABE2" d="M162,20.5c37.1,0,72,14.5,98.3,40.7c26.3,26.3,40.7,61.2,40.7,98.3s-14.5,72-40.7,98.3
		s-61.2,40.7-98.3,40.7S90,284,63.7,257.8S23,196.6,23,159.5s14.5-72,40.7-98.3C90,35,124.9,20.5,162,20.5 M162,4.5
		C76.4,4.5,7,73.9,7,159.5s69.4,155,155,155s155-69.4,155-155S247.6,4.5,162,4.5L162,4.5z"/>
</g>
<g>
	<path fill="#3FA9F5" d="M114.2,155.2h92.9c8.2,0,12.9,4.6,12.9,12.4v33c0,35.7-21.3,56.7-59,56.7c-37.7,0-59.9-21-59.9-56.7v-33
		C101.2,159.8,106,155.2,114.2,155.2z M121.8,197.6c0,22.2,13.5,34.3,39.2,34.3c24.9,0,38.6-12.4,38.6-34.3v-17.5h-77.8V197.6z"/>
</g>
<circle fill="#3FA9F5" cx="101.5" cy="96" r="17.5"/>
<circle fill="#3FA9F5" cx="220.5" cy="96" r="16.5"/>
</svg>
