<?xml version="1.0" encoding="utf-8"?>
<!-- Generator: Adobe Illustrator 27.0.0, SVG Export Plug-In . SVG Version: 6.00 Build 0)  -->
<svg version="1.1" id="图层_1" xmlns="http://www.w3.org/2000/svg" xmlns:xlink="http://www.w3.org/1999/xlink" x="0px" y="0px"
	 viewBox="0 0 1920 1080" enable-background="new 0 0 1920 1080" xml:space="preserve">
<g opacity="0.25">
	<g>
		<circle fill="#FFFFFF" cx="1436" cy="581.8" r="359.6"/>
		<path fill="#29ABE2" d="M1096,582.4c-0.2-90.8,35.2-176.2,99.2-240.6c64.2-64.4,149.5-99.8,240.3-100
			c90.8-0.2,176.2,35.2,240.6,99.2s99.8,149.5,100,240.3c0.2,90.8-35.2,176.2-99.2,240.6c-64,64.4-149.5,99.8-240.3,100
			c-90.8,0.2-176.2-35.2-240.6-99.2C1131.7,758.5,1096.1,673.2,1096,582.4 M1056.8,582.5c0.3,209.4,170.4,378.9,379.8,378.5
			c209.4-0.3,378.9-170.4,378.5-379.8s-170.4-378.9-379.8-378.5S1056.5,373.1,1056.8,582.5L1056.8,582.5z"/>
	</g>
	<g>
		<path fill="#3FA9F5" d="M1424.8,698.6l-0.4-227.4c0-20.1,11.2-31.6,30.3-31.6l80.7-0.1c87.3-0.1,138.8,51.9,138.9,144.2
			c0.2,92.3-51.1,146.7-138.5,146.9l-80.7,0.1C1436.1,730.4,1424.8,718.7,1424.8,698.6z M1528.7,679.1c54.3-0.1,83.9-33.2,83.7-96.3
			c-0.1-61.1-30.5-94.6-84.1-94.5l-42.8,0.1l0.3,190.8L1528.7,679.1z"/>
	</g>
	<circle fill="#3FA9F5" cx="1280.9" cy="730.1" r="42.8"/>
	<circle fill="#3FA9F5" cx="1280.4" cy="439" r="40.4"/>
	<g>
	</g>
	<g>
	</g>
	<g>
	</g>
	<g>
	</g>
	<g>
	</g>
	<g>
	</g>
	<g>
	</g>
	<g>
	</g>
	<g>
	</g>
	<g>
	</g>
	<g>
	</g>
	<g>
	</g>
	<g>
	</g>
	<g>
	</g>
	<g>
	</g>
</g>
<linearGradient id="SVGID_1_" gradientUnits="userSpaceOnUse" x1="18.4442" y1="166.7888" x2="1803.3406" y2="874.2809">
	<stop  offset="0" style="stop-color:#29ABE2;stop-opacity:0.28"/>
	<stop  offset="1.597065e-02" style="stop-color:#28A7E3;stop-opacity:0.2915"/>
	<stop  offset="0.2717" style="stop-color:#1A6CED;stop-opacity:0.4757"/>
	<stop  offset="0.507" style="stop-color:#0F3DF5;stop-opacity:0.645"/>
	<stop  offset="0.7142" style="stop-color:#071CFA;stop-opacity:0.7943"/>
	<stop  offset="0.8856" style="stop-color:#0207FE;stop-opacity:0.9177"/>
	<stop  offset="1" style="stop-color:#0000FF"/>
</linearGradient>
<rect opacity="0.13" fill="url(#SVGID_1_)" width="1920" height="1080"/>
<g>
</g>
<g>
</g>
<g>
</g>
<g>
</g>
<g>
</g>
<g>
</g>
<g>
</g>
<g>
</g>
<g>
</g>
<g>
</g>
<g>
</g>
<g>
</g>
<g>
</g>
<g>
</g>
<g>
</g>
</svg>
